<svg width="2872" height="453" xmlns="http://www.w3.org/2000/svg" xmlns:xlink="http://www.w3.org/1999/xlink" overflow="hidden"><defs><clipPath id="clip0"><rect x="242" y="124" width="2872" height="453"/></clipPath><clipPath id="clip1"><rect x="842" y="144" width="2272" height="432"/></clipPath><clipPath id="clip2"><rect x="842" y="144" width="2271" height="432"/></clipPath><clipPath id="clip3"><rect x="842" y="-134" width="2546" height="1161"/></clipPath><clipPath id="clip4"><rect x="842" y="-134" width="2546" height="1161"/></clipPath><clipPath id="clip5"><rect x="242" y="125" width="847" height="451"/></clipPath><clipPath id="clip6"><rect x="242" y="125" width="847" height="445"/></clipPath><clipPath id="clip7"><rect x="242" y="122" width="847" height="448"/></clipPath><clipPath id="clip8"><rect x="242" y="122" width="847" height="448"/></clipPath></defs><g clip-path="url(#clip0)" transform="translate(-242 -124)"><g clip-path="url(#clip1)"><g clip-path="url(#clip2)"><g clip-path="url(#clip3)"><g clip-path="url(#clip4)"><text fill="#3C3C3C" font-family="Montserrat,Montserrat_MSFontService,sans-serif" font-weight="700" font-size="320" transform="matrix(1.71969 0 0 1.72012 1172.75 558)">Hansel</text></g></g></g></g><g clip-path="url(#clip5)"><g clip-path="url(#clip6)"><g clip-path="url(#clip7)"><g clip-path="url(#clip8)"><path d="M484.277 395.318C530.648 395.318 568.238 435.147 568.238 484.277" stroke="#3C3C3C" stroke-width="53.3088" stroke-miterlimit="8" fill="none" fill-rule="evenodd" transform="matrix(1.00046 0 0 1 105 -17.7298)"/><path d="M0 0 319.742 153.756" stroke="#3C3C3C" stroke-width="53.3088" stroke-linecap="round" stroke-miterlimit="8" fill="none" fill-rule="evenodd" transform="matrix(1.00046 0 0 -1 269.5 531.344)"/><path d="M164.424 549.247 542.011 549.247" stroke="#3C3C3C" stroke-width="53.3088" stroke-linecap="round" stroke-miterlimit="8" fill="none" fill-rule="evenodd" transform="matrix(1.00046 0 0 1 105 -17.7298)"/><path d="M568.238 479.279C568.238 504.732 559.529 529.155 544.003 547.248" stroke="#3C3C3C" stroke-width="53.3088" stroke-miterlimit="8" fill="none" fill-rule="evenodd" transform="matrix(1.00046 0 0 1 105 -17.7298)"/><path d="M568.238 288.367 684.972 288.367" stroke="#3C3C3C" stroke-width="53.3088" stroke-linecap="round" stroke-miterlimit="8" fill="none" fill-rule="evenodd" transform="matrix(1.00046 0 0 1 105 -17.7298)"/><path d="M414.309 294.702C509.841 165.239 664.875 133.903 788.817 219.005 885.873 285.646 946.064 412.056 946.064 549.247" stroke="#3C3C3C" stroke-width="53.3088" stroke-linecap="square" stroke-miterlimit="8" fill="none" fill-rule="evenodd" transform="matrix(1.00046 0 0 1 105 -17.7298)"/></g></g></g></g></g></svg>